<svg width="18" height="16" viewBox="0 0 18 16" fill="none" xmlns="http://www.w3.org/2000/svg">
<path d="M7.57421 15.1323L1.29921 8.88572C0.82751 8.41572 0.82751 7.58402 1.29921 7.11232L7.57421 0.86572C8.06421 0.37902 8.85581 0.38072 9.34251 0.87072C9.82921 1.36072 9.82921 2.15072 9.33921 2.63902L5.21081 6.75072H15.8025C16.4942 6.75072 17.0525 7.31072 17.0525 8.00072C17.0525 8.69072 16.4942 9.25072 15.8025 9.25072H5.21081L9.33921 13.3607C9.58421 13.6057 9.70581 13.9257 9.70581 14.2473C9.70581 14.5657 9.58421 14.8857 9.34251 15.129C8.85581 15.6173 8.06421 15.619 7.57421 15.1323Z" fill="black"/>
</svg>
