<svg width="18" height="16" viewBox="0 0 18 16" fill="none" xmlns="http://www.w3.org/2000/svg">
<path d="M10.4258 15.1323L16.7008 8.88572C17.1725 8.41572 17.1725 7.58402 16.7008 7.11232L10.4258 0.86572C9.93579 0.37902 9.14419 0.38072 8.65749 0.87072C8.17079 1.36072 8.17079 2.15072 8.66079 2.63902L12.7892 6.75072H2.19749C1.50579 6.75072 0.947491 7.31072 0.947491 8.00072C0.947491 8.69072 1.50579 9.25072 2.19749 9.25072H12.7892L8.66079 13.3607C8.41579 13.6057 8.29419 13.9257 8.29419 14.2473C8.29419 14.5657 8.41579 14.8857 8.65749 15.129C9.14419 15.6173 9.93579 15.619 10.4258 15.1323Z" fill="black"/>
</svg>
